<svg id="Layer_1" data-name="Layer 1" xmlns="http://www.w3.org/2000/svg" viewBox="0 0 790.8 315.5"><path d="M471.1,373.3a77.5,77.5,0,1,0-150.6-25.8,76.7,76.7,0,0,0,4.9,27.2A56.5,56.5,0,0,0,339,486a61.2,61.2,0,0,0,11.4-1.1l-32.3-31.4a7,7,0,1,1,9.8-10l37.2,36.1a56.4,56.4,0,0,0,22.9-22V367a9.5,9.5,0,0,1,19,0v90.3a61.1,61.1,0,0,0,9.1,11.2l45.7-49.8a7,7,0,0,1,10.3,9.5l-44.7,48.6a56.5,56.5,0,1,0,43.7-103.5Z" transform="translate(-282.5 -270)"/><path d="M407,478.4V457.3a56.3,56.3,0,0,1-8.5-29.8,20.9,20.9,0,0,1,.1-2.5h-3.3c.1,1.5.2,3.1.2,4.6a55.9,55.9,0,0,1-7.5,28.1v44.3l-22.9-22.3a57.3,57.3,0,0,1-14.7,5.3L388,521.4V576a9.5,9.5,0,0,0,19,0V499.1l20.4-22.3a57.7,57.7,0,0,1-11.3-8.3Z" transform="translate(-282.5 -270)"/><path d="M569.9,484.1V304.4H500.7v-24H667v24H597.6V484.1Z" transform="translate(-282.5 -270)"/><path d="M681,484.1V336.5h23.2v22.4c5.9-10.5,11.4-17.4,16.4-20.7a29.4,29.4,0,0,1,16.5-5c8.7,0,17.5,2.7,26.5,8.1l-8.9,23.2a37.8,37.8,0,0,0-18.9-5.4,24.6,24.6,0,0,0-15.1,4.9,26.4,26.4,0,0,0-9.6,13.7,93.7,93.7,0,0,0-4.3,29.2v77.2Z" transform="translate(-282.5 -270)"/><path d="M882.9,436.6l26.6,3.2c-4.2,15.1-12,26.8-23.3,35.1s-25.9,12.5-43.5,12.5q-33.3,0-52.9-19.9t-19.5-55.9q0-37.2,19.7-57.8t51.3-20.6q30.5,0,49.8,20.2c12.8,13.4,19.3,32.3,19.3,56.6,0,1.5-.1,3.8-.2,6.7H796.9c1,16.2,5.7,28.6,14.2,37.3s19.1,12.9,31.7,12.9c9.5,0,17.5-2.4,24.2-7.3S879,447.1,882.9,436.6Zm-84.6-40.4h84.9c-1.2-12.5-4.4-21.8-9.7-28-8.2-9.6-18.9-14.4-31.9-14.4s-21.8,3.8-29.9,11.5S799.2,383.3,798.3,396.2Z" transform="translate(-282.5 -270)"/><path d="M1045.9,436.6l26.6,3.2c-4.2,15.1-12,26.8-23.3,35.1s-25.9,12.5-43.5,12.5q-33.5,0-52.9-19.9t-19.5-55.9c0-24.8,6.5-44.1,19.7-57.8s30.2-20.6,51.2-20.6,36.9,6.7,49.8,20.2,19.3,32.3,19.3,56.6c0,1.5,0,3.8-.1,6.7H959.9c.9,16.2,5.7,28.6,14.1,37.3s19.1,12.9,31.8,12.9c9.4,0,17.5-2.4,24.2-7.3S1042,447.1,1045.9,436.6Zm-84.6-40.4h84.9c-1.2-12.5-4.4-21.8-9.8-28-8.2-9.6-18.8-14.4-31.9-14.4s-21.8,3.8-29.8,11.5S962.2,383.3,961.3,396.2Z" transform="translate(-282.5 -270)"/><path d="M554.8,559.5v-63h24.4a61.7,61.7,0,0,1,9.9.6,19.1,19.1,0,0,1,8,3,15.4,15.4,0,0,1,5.2,6,20.4,20.4,0,0,1-3.3,22.2c-3.5,3.7-9.9,5.6-19,5.6H563.4v25.6Zm8.6-33.1h16.7c5.6,0,9.5-1,11.8-3a10.6,10.6,0,0,0,3.5-8.4,11.6,11.6,0,0,0-2-6.8,9.6,9.6,0,0,0-5.5-3.7,34.8,34.8,0,0,0-8-.6H563.4Z" transform="translate(-282.5 -270)"/><path d="M614.2,559.5v-63h7.9v22.6a18,18,0,0,1,14.1-6.3,19.6,19.6,0,0,1,9,2,12.2,12.2,0,0,1,5.5,5.5c1.1,2.4,1.7,5.8,1.7,10.3v28.9h-8V530.6c0-3.9-.8-6.7-2.6-8.5s-4.1-2.6-7.3-2.6a13.1,13.1,0,0,0-6.6,1.8,10.4,10.4,0,0,0-4.5,4.8,23.1,23.1,0,0,0-1.3,8.4v25Z" transform="translate(-282.5 -270)"/><path d="M661.5,536.7c0-8.5,2.5-14.7,7.3-18.8a22.2,22.2,0,0,1,14.8-5.1,21.5,21.5,0,0,1,15.8,6.2c4.1,4.1,6.1,9.8,6.1,17s-.9,10.5-2.7,13.9a19.2,19.2,0,0,1-7.9,7.8,23.1,23.1,0,0,1-11.3,2.8c-6.6,0-11.9-2.1-16-6.2S661.5,544.4,661.5,536.7Zm8.2,0c0,5.8,1.3,10.2,4,13.1a12.7,12.7,0,0,0,9.9,4.3,12.4,12.4,0,0,0,9.8-4.4c2.6-2.9,4-7.3,4-13.3s-1.4-9.9-4-12.8a13.2,13.2,0,0,0-19.7,0C671,526.5,669.7,530.8,669.7,536.7Z" transform="translate(-282.5 -270)"/><path d="M732.2,552.5l1.2,6.9a36.9,36.9,0,0,1-6,.7,14.1,14.1,0,0,1-6.8-1.4,7.4,7.4,0,0,1-3.3-3.5c-.7-1.4-1-4.5-1-9.1V519.9h-5.8v-6h5.8V502.6l7.9-4.7v16h8v6h-8v26.6a16.6,16.6,0,0,0,.4,4.3,4,4,0,0,0,1.4,1.5,5.4,5.4,0,0,0,2.7.5Z" transform="translate(-282.5 -270)"/><path d="M737,536.7c0-8.5,2.5-14.7,7.3-18.8a22.2,22.2,0,0,1,14.8-5.1,21.5,21.5,0,0,1,15.8,6.2c4.1,4.1,6.1,9.8,6.1,17s-.9,10.5-2.7,13.9a19.2,19.2,0,0,1-7.9,7.8,23.1,23.1,0,0,1-11.3,2.8c-6.6,0-11.9-2.1-16-6.2S737,544.4,737,536.7Zm8.2,0c0,5.8,1.3,10.2,4,13.1a12.7,12.7,0,0,0,9.9,4.3,12.4,12.4,0,0,0,9.8-4.4c2.6-2.9,4-7.3,4-13.3s-1.4-9.9-4-12.8a13.2,13.2,0,0,0-19.7,0C746.5,526.5,745.2,530.8,745.2,536.7Z" transform="translate(-282.5 -270)"/><path d="M788.9,563.2l7.7,1.1a7.4,7.4,0,0,0,2.7,5.1,13.9,13.9,0,0,0,8.1,2.2c3.7,0,6.6-.8,8.6-2.2a10.2,10.2,0,0,0,4-6q.6-2.4.6-9.9a16.5,16.5,0,0,1-13,6c-6.4,0-11.4-2.3-15-6.8a26.1,26.1,0,0,1-5.3-16.3,29.2,29.2,0,0,1,2.4-12,18.6,18.6,0,0,1,17.9-11.6,17,17,0,0,1,13.8,6.6v-5.5h7.3v39.4c0,7.1-.8,12.1-2.2,15.1a16.6,16.6,0,0,1-7.1,7,25.2,25.2,0,0,1-11.9,2.6c-5.6,0-10.2-1.3-13.6-3.7S788.8,568.2,788.9,563.2Zm6.6-27.4c0,6,1.2,10.4,3.7,13.1a11.6,11.6,0,0,0,9.2,4.2,12.2,12.2,0,0,0,9.2-4.1c2.4-2.8,3.7-7.1,3.7-12.9s-1.3-9.8-3.9-12.6a11.9,11.9,0,0,0-18.2-.1C796.7,526.2,795.5,530.3,795.5,535.8Z" transform="translate(-282.5 -270)"/><path d="M840.6,559.5V513.9h7.2v6.9c1.8-3.3,3.5-5.4,5.1-6.4a8.4,8.4,0,0,1,5.1-1.6,16.2,16.2,0,0,1,8.1,2.5l-2.7,7.2a11.7,11.7,0,0,0-5.8-1.7,7.8,7.8,0,0,0-4.7,1.5,8.9,8.9,0,0,0-3,4.3,28.4,28.4,0,0,0-1.3,9v23.9Z" transform="translate(-282.5 -270)"/><path d="M901.5,553.8A28.2,28.2,0,0,1,893,559a25.4,25.4,0,0,1-8.8,1.5c-5.1,0-9.1-1.2-11.9-3.7a12.1,12.1,0,0,1-4.1-9.4,12.8,12.8,0,0,1,1.5-6.1,13.6,13.6,0,0,1,4.2-4.4,19.9,19.9,0,0,1,5.7-2.6,47,47,0,0,1,7-1.1,79.5,79.5,0,0,0,14.2-2.7,19.2,19.2,0,0,0,.1-2c0-3.2-.8-5.4-2.3-6.7s-5-2.6-9-2.6-6.5.7-8.3,1.9-3.1,3.6-4,6.8l-7.8-1A18.6,18.6,0,0,1,873,519a16,16,0,0,1,7.1-4.6,33.8,33.8,0,0,1,10.6-1.6,29.5,29.5,0,0,1,9.8,1.4,12.8,12.8,0,0,1,5.5,3.5,11.5,11.5,0,0,1,2.5,5.2,38.5,38.5,0,0,1,.4,7.1v10.3a116.5,116.5,0,0,0,.5,13.7,16.6,16.6,0,0,0,2,5.5h-8.3A16.5,16.5,0,0,1,901.5,553.8Zm-.7-17.2a61.1,61.1,0,0,1-13,2.9,33.5,33.5,0,0,0-6.9,1.5,6.5,6.5,0,0,0-3.1,2.5,6.2,6.2,0,0,0-1.1,3.7,6.6,6.6,0,0,0,2.4,5.2c1.6,1.3,3.9,2,7,2a16.8,16.8,0,0,0,8.2-1.9,12.5,12.5,0,0,0,5.3-5.4,19,19,0,0,0,1.2-7.7Z" transform="translate(-282.5 -270)"/><path d="M921.2,576.9v-63h7.3v5.9a16.7,16.7,0,0,1,5.8-5.2,15.5,15.5,0,0,1,7.8-1.8,19,19,0,0,1,10.6,3,18.2,18.2,0,0,1,6.9,8.5,31.5,31.5,0,0,1-.2,24.6,19.1,19.1,0,0,1-7.5,8.6,19.8,19.8,0,0,1-10.4,3,16.5,16.5,0,0,1-7.1-1.6,15.5,15.5,0,0,1-5.2-4.2v22.2Zm7.2-40c0,5.9,1.2,10.2,3.7,13a11.3,11.3,0,0,0,8.9,4.2,11.8,11.8,0,0,0,9.1-4.3c2.5-2.9,3.7-7.4,3.7-13.5s-1.2-10.2-3.6-13.1a11.3,11.3,0,0,0-8.9-4.3c-3.4,0-6.4,1.5-9,4.6S928.4,531,928.4,536.9Z" transform="translate(-282.5 -270)"/><path d="M971.6,559.5v-63h7.9v22.6a18,18,0,0,1,14.1-6.3,20,20,0,0,1,9.1,2,12.7,12.7,0,0,1,5.5,5.5c1.1,2.4,1.6,5.8,1.6,10.3v28.9h-7.9V530.6c0-3.9-.9-6.7-2.6-8.5a10.2,10.2,0,0,0-7.3-2.6,13.2,13.2,0,0,0-6.7,1.8,9.7,9.7,0,0,0-4.4,4.8,20.9,20.9,0,0,0-1.4,8.4v25Z" transform="translate(-282.5 -270)"/><path d="M1021.6,577l-.9-7.2a19.9,19.9,0,0,0,4.5.6,8.9,8.9,0,0,0,4.3-.8,8.5,8.5,0,0,0,2.6-2.4,37.3,37.3,0,0,0,2.4-5.8,16.7,16.7,0,0,0,.7-1.9l-17.8-45.6h8.6l9.8,26.4c1.2,3.3,2.4,6.8,3.4,10.5.9-3.5,2-7,3.2-10.4l10.1-26.5h7.9l-17.8,46.3a82.5,82.5,0,0,1-4.5,10.4,15.1,15.1,0,0,1-4.9,5.6,11.5,11.5,0,0,1-6.5,1.8A17.6,17.6,0,0,1,1021.6,577Z" transform="translate(-282.5 -270)"/></svg>